HIERARCHY
ROOT Hips
{
	OFFSET -0.001795 -0.223333 0.028219
	CHANNELS 6 Xposition Yposition Zposition Zrotation Yrotation Xrotation 
	JOINT LeftUpLeg
	{
		OFFSET 0.069520 -0.091406 -0.006815
		CHANNELS 3 Zrotation Yrotation Xrotation
		JOINT LeftLeg
		{
			OFFSET 0.034277 -0.375199 -0.004496
			CHANNELS 3 Zrotation Yrotation Xrotation
			JOINT LeftFoot
			{
				OFFSET -0.013596 -0.397961 -0.043693
				CHANNELS 3 Zrotation Yrotation Xrotation
				JOINT LeftToe
				{
					OFFSET 0.026358 -0.055791 0.119288
					CHANNELS 3 Zrotation Yrotation Xrotation
					End Site
					{
						OFFSET 0.000000 0.000000 0.000000
					}
				}
			}
		}
	}
	JOINT RightUpLeg
	{
		OFFSET -0.067670 -0.090522 -0.004320
		CHANNELS 3 Zrotation Yrotation Xrotation
		JOINT RightLeg
		{
			OFFSET -0.038290 -0.382569 -0.008850
			CHANNELS 3 Zrotation Yrotation Xrotation
			JOINT RightFoot
			{
				OFFSET 0.015774 -0.398415 -0.042312
				CHANNELS 3 Zrotation Yrotation Xrotation
				JOINT RightToe
				{
					OFFSET -0.025372 -0.048144 0.123348
					CHANNELS 3 Zrotation Yrotation Xrotation
					End Site
					{
						OFFSET 0.000000 0.000000 0.000000
					}
				}
			}
		}
	}
	JOINT Spine
	{
		OFFSET -0.002533 0.108963 -0.026696
		CHANNELS 3 Zrotation Yrotation Xrotation
		JOINT Spine1
		{
			OFFSET 0.005487 0.135180 0.001092
			CHANNELS 3 Zrotation Yrotation Xrotation
			JOINT Spine2
			{
				OFFSET 0.001457 0.052922 0.025425
				CHANNELS 3 Zrotation Yrotation Xrotation
				JOINT Neck
				{
					OFFSET -0.002778 0.213870 -0.042857
					CHANNELS 3 Zrotation Yrotation Xrotation
					JOINT Head
					{
						OFFSET 0.005152 0.064970 0.051349
						CHANNELS 3 Zrotation Yrotation Xrotation
						End Site
						{
							OFFSET 0.000000 0.000000 0.000000
						}
					}
				}
				JOINT LeftShoulder
				{
					OFFSET 0.078845 0.121749 -0.034090
					CHANNELS 3 Zrotation Yrotation Xrotation
					JOINT LeftArm
					{
						OFFSET 0.090977 0.030469 -0.008868
						CHANNELS 3 Zrotation Yrotation Xrotation
						JOINT LeftForeArm
						{
							OFFSET 0.259612 -0.012772 -0.027456
							CHANNELS 3 Zrotation Yrotation Xrotation
							JOINT LeftHand
							{
								OFFSET 0.249234 0.008986 -0.001171
								CHANNELS 3 Zrotation Yrotation Xrotation
								End Site
								{
									OFFSET 0.000000 0.000000 0.000000
								}
							}
						}
					}
				}
				JOINT RightShoulder
				{
					OFFSET -0.081759 0.118833 -0.038615
					CHANNELS 3 Zrotation Yrotation Xrotation
					JOINT RightArm
					{
						OFFSET -0.096012 0.032551 -0.009143
						CHANNELS 3 Zrotation Yrotation Xrotation
						JOINT RightForeArm
						{
							OFFSET -0.253742 -0.013329 -0.021401
							CHANNELS 3 Zrotation Yrotation Xrotation
							JOINT RightHand
							{
								OFFSET -0.255298 0.007772 -0.005559
								CHANNELS 3 Zrotation Yrotation Xrotation
								End Site
								{
									OFFSET 0.000000 0.000000 0.000000
								}
							}
						}
					}
				}
			}
		}
	}
}
MOTION
Frames: 7
Frame Time: 0.050000
0.161761 1.263937 0.605604 -1.482407 7.183035 -5.770255 -0.415998 0.074179 0.875693 0.772440 0.219345 -8.170694 0.419716 15.684919 84.578667 0.000000 0.000000 0.000000 3.781320 -0.101782 0.738675 -7.054301 -0.169984 -9.391063 -0.538377 -18.526965 91.802173 0.000000 0.000000 0.000000 -5.505835 -1.403696 -31.144717 -2.767268 -4.644787 60.601054 5.885286 1.784470 -38.383506 1.844576 1.559094 -22.069530 0.000000 0.000000 0.000000 12.495677 -33.790067 11.070443 55.837383 29.361547 23.340965 19.737844 0.753294 0.780133 0.000000 0.000000 0.000000 -15.804810 27.343005 9.570553 -43.486841 -20.868904 10.573490 0.223694 -10.514045 -0.214655 0.000000 0.000000 0.000000 
0.174307 1.293207 0.662117 -2.335919 7.232434 -8.870886 -0.638698 0.064074 0.815798 0.877955 0.240726 -9.102610 -2.701365 14.339734 82.810853 0.000000 0.000000 0.000000 4.577485 0.001107 0.202204 -6.868341 -0.270519 -10.305918 2.671350 -16.438667 87.050403 0.000000 0.000000 0.000000 -4.699394 -1.040376 -28.105540 -1.352884 -5.902119 55.247800 3.650911 0.663266 -30.957296 3.174016 0.923766 -21.463424 0.000000 0.000000 0.000000 12.581693 -32.582033 10.294906 61.818917 35.929420 31.146626 17.966207 1.062442 0.565187 0.000000 0.000000 0.000000 -15.246152 27.131713 9.104157 -46.148422 -25.325448 14.467143 0.575453 -11.058204 -0.284735 0.000000 0.000000 0.000000 
0.184693 1.304712 0.718309 -3.149710 6.905722 -13.070597 -0.358746 0.050944 0.787386 1.539570 0.233318 -9.380320 -3.003872 14.254170 83.746449 0.000000 0.000000 0.000000 5.189872 0.072093 0.047929 -6.497012 -0.339617 -10.939908 2.975284 -16.337563 87.300040 0.000000 0.000000 0.000000 -3.517913 -0.553697 -24.181000 0.039820 -6.241207 48.072901 1.477241 -0.877038 -20.342061 5.331607 -0.026739 -22.719839 0.000000 0.000000 0.000000 11.940574 -31.683171 9.750613 72.221852 43.897770 44.150718 15.771537 -0.631470 0.147650 0.000000 0.000000 0.000000 -16.455294 26.816839 8.404802 -49.893124 -29.490838 18.879485 -0.233401 -11.523467 -0.237017 0.000000 0.000000 0.000000 
0.192657 1.287191 0.776588 -3.832255 6.724379 -17.193592 0.696928 0.050845 0.756751 2.556780 0.181157 -8.788580 -4.064866 13.797351 83.913611 0.000000 0.000000 0.000000 5.440189 0.023574 0.697260 -5.870349 -0.349029 -10.997345 2.949902 -16.319445 87.134578 0.000000 0.000000 0.000000 -2.495837 -0.201683 -20.212857 1.174731 -6.047439 40.373944 -0.307761 -2.087473 -8.132966 6.955429 -0.800122 -26.742972 0.000000 0.000000 0.000000 11.587111 -30.449415 9.049082 85.782192 51.646631 61.014864 15.575319 -4.716541 -0.364804 0.000000 0.000000 0.000000 -19.260188 25.544675 7.186633 -55.629343 -34.159293 24.578709 -2.267866 -10.034917 -0.034305 0.000000 0.000000 0.000000 
0.198262 1.248987 0.837591 -4.507278 6.488174 -20.110695 2.185173 0.035844 0.144114 3.575344 0.108954 -8.076126 -4.826418 13.456466 83.878058 0.000000 0.000000 0.000000 5.575038 -0.009857 1.146675 -5.004098 -0.324733 -10.615481 1.785214 -16.796061 87.061794 0.000000 0.000000 0.000000 -1.778935 0.004168 -17.041204 2.301209 -5.838011 33.108974 -1.788936 -2.117162 3.037945 7.304229 -0.760000 -33.424938 0.000000 0.000000 0.000000 11.100749 -29.154873 8.353986 98.011371 56.179284 75.031107 18.099591 -7.350503 -0.875010 0.000000 0.000000 0.000000 -20.419007 23.444237 5.855110 -63.984059 -38.115597 31.729326 -3.928274 -6.416306 0.108222 0.000000 0.000000 0.000000 
0.201804 1.195918 0.899569 -5.280718 6.213307 -21.593420 3.854501 0.012708 -1.105053 4.541840 0.054566 -7.851264 -4.810865 13.462269 84.199187 0.000000 0.000000 0.000000 5.790523 0.133783 0.374604 -4.089019 -0.291577 -9.988888 -0.495590 -17.821289 87.539361 0.000000 0.000000 0.000000 -1.184583 0.140112 -14.480240 3.731753 -5.813772 25.758670 -3.270550 -1.143783 13.560982 7.383864 0.186904 -45.769665 0.000000 0.000000 0.000000 10.112332 -26.705628 7.455857 104.594415 59.871113 82.912650 22.031127 -7.387579 -1.251052 0.000000 0.000000 0.000000 -19.821791 20.131330 4.420652 -70.377957 -42.182418 38.527019 -5.430787 -3.534143 0.190475 0.000000 0.000000 0.000000 
0.203337 1.130779 0.960796 -5.969452 6.449071 -21.064327 5.185314 -0.076072 -3.721817 5.286701 0.081206 -8.715203 -3.821136 13.846686 85.224226 0.000000 0.000000 0.000000 5.859276 0.565973 -2.434311 -3.420482 -0.264287 -9.368755 -3.465306 -19.236772 88.846320 0.000000 0.000000 0.000000 -0.553098 0.241360 -12.178602 5.587809 -6.015356 17.942814 -4.954677 0.115442 23.403896 5.414387 2.294884 -66.016760 0.000000 0.000000 0.000000 7.358605 -21.732199 6.276752 99.444864 65.934497 80.915067 26.243238 -3.341783 -0.899810 0.000000 0.000000 0.000000 -17.517137 15.752081 3.057211 -70.496597 -49.836685 44.001068 -8.109543 -3.981949 0.363290 0.000000 0.000000 0.000000 
